<svg xmlns="http://www.w3.org/2000/svg" viewBox="0 0 64 64">
  <defs>
    <linearGradient id="g" x1="0" x2="1" y1="0" y2="1">
      <stop offset="0%" stop-color="#38bdf8"/>
      <stop offset="100%" stop-color="#34d399"/>
    </linearGradient>
  </defs>
  <rect width="64" height="64" rx="12" fill="url(#g)"/>
  <g fill="#fff">
    <path d="M21 28c0-6 5-11 11-11s11 5 11 11-5 11-11 11-11-5-11-11zm11-15c-8.8 0-16 7.2-16 16 0 3.1.9 6 2.5 8.4L16 44c-1.3 1.3-.4 3.6 1.5 3.6h10.4C32.2 49 37 45.7 39.8 41c2.2-3.8 4.2-8.9 4.2-12 0-8.8-7.2-16-16-16z"/>
  </g>
</svg>
